<?xml version="1.0" encoding="UTF-8"?>
<svg id="HQ" xmlns="http://www.w3.org/2000/svg" width="189.114" height="25.166" viewBox="0 0 680 125">
  <defs>
    <style>
      .cls-1, .cls-2 {
        fill: #fff;
      }

      .cls-3, .cls-4 {
        fill: none;
      }

      .cls-3, .cls-4, .cls-2 {
        stroke: #2e3150;
        stroke-linejoin: round;
        stroke-width: 3px;
      }

      .cls-5 {
        fill: #fac200;
      }

      .cls-4, .cls-2 {
        stroke-linecap: round;
      }

      .cls-6 {
        fill: #fd3056;
      }

      .cls-7 {
        fill: #2e3150;
      }

      .cls-8 {
        fill: #11cddd;
      }
    </style>
  </defs>
  <g>
    <path class="cls-7" d="M191,81.8h-12l-15.6-17.9h-9.7v17.9h-10.1V28.2c8.5,0,17,0,25.4,0,12.6,0,19.3,8.5,19.3,17.7s-3.4,14.7-13.5,16.8l16.2,18.3v.7Zm-37.3-44.1v17.1h15.4c6.4,0,9.2-4.3,9.2-8.6s-2.8-8.6-9.2-8.6h-15.4Z"/>
    <path class="cls-7" d="M224.4,44.1h8.9v37.7h-8.8l-.5-5.5c-2.1,4.4-8,6.6-12.2,6.6-11.2,0-19.4-6.8-19.4-20s8.6-19.8,19.6-19.7c5,0,9.9,2.4,12,6.1l.3-5.2Zm-22.6,18.8c0,7.2,5,11.5,11.2,11.5,14.7,0,14.7-22.8,0-22.8s-11.2,4.2-11.2,11.4Z"/>
    <path class="cls-7" d="M252.7,33.5v10.7h10.4v8h-10.5v16.3c0,3.6,2,5.3,4.9,5.3s3.1-.5,4.5-1.1l2.6,7.9c-2.7,1.1-4.9,1.5-7.7,1.6-8.2,.3-13.5-4.4-13.5-13.8v-16.3h-7v-8h7v-9.7l9.3-1Z"/>
    <path class="cls-7" d="M278,66.2c.6,4.7,4.7,8,11.2,8s7.9-1.3,10.1-3.5l6,5.9c-4,4.1-10.5,6.1-16.2,6.1-13,0-20.7-8-20.7-20.1s7.8-19.7,20-19.7,20.5,7.8,19,23.3h-29.4Zm20.5-7.7c-.6-4.9-4.4-7.3-9.8-7.3s-9.2,2.4-10.5,7.3h20.3Z"/>
    <path class="cls-7" d="M363.1,34.2l-20.5,31.3h-1.4l-20.6-31.3v47.5h-4.1V28.3h4.9l20.5,31.2,20.3-31.2h5v53.5h-4V34.2Z"/>
    <path class="cls-7" d="M410.5,44l-23,53.5h-4l7-16.2-15.1-37.3h4.1l8.8,22.3,4.4,10.9,4.4-11,9.5-22.2h4Z"/>
    <path class="cls-7" d="M453.1,38.6c-3.9-6.3-10.2-7.2-16.2-7.3-6.3,0-16.2,2.3-16.2,10.9s7.3,8.4,16.4,10.1c10.3,2,21,3.8,21,15.4,0,12.1-12.2,15-21.2,15s-17.8-3.4-21.9-11.6l3.7-1.8c3.3,6.5,11.7,9.7,18.3,9.7s17-1.8,17-11.3c0-8-8.8-9.8-17.6-11.5-9.8-1.9-19.8-3.9-19.8-13.8-.2-11.3,11.5-14.8,20.3-14.8s14.3,1.2,19.6,9.1l-3.4,2Z"/>
    <path class="cls-7" d="M466.4,62.9c0-11.3,8.6-19.5,19.2-19.5s20.1,6.5,18.6,21.2h-34c.8,8.9,7.6,14,15.4,14s10.8-2,13.6-5.7l2.7,2.1c-3.7,4.8-10.2,7.3-16.3,7.3-10.6,0-19.2-7.4-19.2-19.4Zm34.5-1.5c0-9.3-6.2-14.5-15.3-14.5s-14.5,5.3-15.4,14.5h30.6Z"/>
    <path class="cls-7" d="M517.5,44l.2,6.7c2.4-5.1,7.7-7.1,12.5-7.1,2.8,0,5.6,.7,8.1,2.2l-1.7,3.1c-2-1.2-4.2-1.8-6.4-1.8-7,0-12.5,5.7-12.5,12.6v22h-3.7V44h3.5Z"/>
    <path class="cls-7" d="M542.7,44h4.1l13.8,33.4,13.8-33.4h4.1l-15.8,37.8h-4.1l-15.8-37.8Z"/>
    <path class="cls-7" d="M589.6,31.7c0,4-6,4-6,0s6-4,6,0Zm-5,12.2v37.9h3.7V43.9h-3.7Z"/>
    <path class="cls-7" d="M630,76.5c-3.8,3.8-8.8,5.7-13.8,5.7-10.6,0-19.4-7.3-19.4-19.3s8.5-19.3,19.4-19.3,9.9,1.9,13.8,5.7l-2.4,2.4c-3.1-3.1-7.3-4.5-11.3-4.5-8.6,0-15.7,5.6-15.7,15.7s7.2,15.7,15.7,15.7,8.2-1.6,11.2-4.7l2.5,2.5Z"/>
    <path class="cls-7" d="M637,62.9c0-11.3,8.6-19.5,19.2-19.5s20.1,6.5,18.6,21.2h-34c.8,8.9,7.6,14,15.4,14s10.8-2,13.6-5.7l2.7,2.1c-3.7,4.8-10.2,7.3-16.3,7.3-10.6,0-19.2-7.4-19.2-19.4Zm34.5-1.5c0-9.3-6.2-14.5-15.3-14.5s-14.5,5.3-15.4,14.5h30.6Z"/>
  </g>
  <g>
    <path class="cls-1" d="M119.4,83.2l-17.5-8.8c-4.9,2.5-10.5,3.9-16.4,3.9-20,0-36.1-16.2-36.1-36.1S65.5,6,85.5,6s36.1,16.2,36.1,36.2-2.6,15.3-6.9,21.3l4.7,19.8Z"/>
    <path class="cls-5" d="M119.4,87.3l-17.5-8.8c-4.9,2.5-10.5,3.9-16.4,3.9-20,0-36.1-16.2-36.1-36.1S65.5,10.1,85.5,10.1s36.1,16.2,36.1,36.2-2.6,15.3-6.9,21.3l4.7,19.8Z"/>
    <polygon class="cls-2" points="85.5 21.9 91.7 34.5 105.5 36.5 95.5 46.2 97.9 60 85.5 53.5 73.1 60 75.5 46.2 65.5 36.5 79.3 34.5 85.5 21.9"/>
    <path class="cls-3" d="M119.4,83.2l-17.5-8.8c-4.9,2.5-10.5,3.9-16.4,3.9-20,0-36.1-16.2-36.1-36.1S65.5,6,85.5,6s36.1,16.2,36.1,36.2-2.6,15.3-6.9,21.3l4.7,19.8Z"/>
    <path class="cls-1" d="M15.2,112.6l8.8-17.5c-2.5-4.9-3.9-10.5-3.9-16.4,0-20,16.2-36.1,36.1-36.1s36.2,16.2,36.2,36.1-16.2,36.1-36.2,36.1-15.3-2.6-21.3-6.9l-19.8,4.7Z"/>
    <path class="cls-8" d="M14.9,116.7l8.8-17.5c-2.5-4.9-3.9-10.5-3.9-16.4,0-20,16.2-36.1,36.1-36.1s36.2,16.2,36.2,36.1-16.2,36.1-36.2,36.1-15.3-2.6-21.3-6.9l-19.8,4.7Z"/>
    <path class="cls-3" d="M15.2,112.6l8.8-17.5c-2.5-4.9-3.9-10.5-3.9-16.4,0-20,16.2-36.1,36.1-36.1s36.2,16.2,36.2,36.1-16.2,36.1-36.2,36.1-15.3-2.6-21.3-6.9l-19.8,4.7Z"/>
    <path class="cls-1" d="M5.2,62.6l5.6-11.2c-1.6-3.1-2.5-6.7-2.5-10.4,0-12.7,10.3-23.1,23.1-23.1s23.1,10.3,23.1,23.1-10.3,23.1-23.1,23.1-9.8-1.6-13.6-4.4l-12.6,3Z"/>
    <path class="cls-6" d="M5,65.9l5.6-11.2c-1.6-3.1-2.5-6.7-2.5-10.4,0-12.7,10.3-23.1,23.1-23.1s23.1,10.3,23.1,23.1-10.3,23.1-23.1,23.1-9.8-1.6-13.6-4.4l-12.6,3Z"/>
    <path class="cls-2" d="M40.3,43.6h0s-9.4,9.4-9.4,9.4l-9.4-9.4c-1.3-1.3-1.9-3-1.9-4.7s.6-3.4,1.9-4.7h0c2.6-2.6,6.8-2.6,9.4,0,1.3-1.3,3-1.9,4.7-1.9s3.4,.6,4.7,1.9h0c2.6,2.6,2.6,6.8,0,9.4Z"/>
    <path class="cls-3" d="M5.2,62.6l5.6-11.2c-1.6-3.1-2.5-6.7-2.5-10.4,0-12.7,10.3-23.1,23.1-23.1s23.1,10.3,23.1,23.1-10.3,23.1-23.1,23.1-9.8-1.6-13.6-4.4l-12.6,3Z"/>
    <g>
      <path class="cls-4" d="M40.5,73.9c0-3.7,3-6.6,6.7-6.6,3.7,0,6.6,3,6.6,6.7"/>
      <path class="cls-4" d="M70.7,74.2c0-3.7,3-6.6,6.7-6.6,3.7,0,6.6,3,6.6,6.7"/>
      <path class="cls-4" d="M47,86.4c2.8,5.7,8.4,9.7,15,9.7,6.6,0,12.3-3.8,15.2-9.4"/>
    </g>
  </g>
</svg>