<svg xmlns="http://www.w3.org/2000/svg" width="63.99" height="53.58" viewBox="0 0 63.99 53.58">
  <g id="Group_802" data-name="Group 802" transform="translate(-702 -416)">
    <g id="upload-data" transform="translate(702 410.79)">
      <path id="Path_422" data-name="Path 422" d="M8.96,8.96a2.945,2.945,0,1,0,2.95,2.94A2.945,2.945,0,0,0,8.96,8.96Zm0,3.95A1.005,1.005,0,1,1,9.97,11.9,1.012,1.012,0,0,1,8.96,12.91Zm7.4-3.82a2.81,2.81,0,1,0,2.8,2.81A2.812,2.812,0,0,0,16.36,9.09Zm0,3.68a.87.87,0,1,1,.86-.87A.871.871,0,0,1,16.36,12.77Zm7.39-3.68a2.81,2.81,0,1,0,2.81,2.81A2.812,2.812,0,0,0,23.75,9.09Zm0,3.68a.87.87,0,1,1,.87-.87A.871.871,0,0,1,23.75,12.77Zm34.23-.87a.946.946,0,0,1-.62.9.812.812,0,0,1-.35.07H31.33a.97.97,0,0,1,0-1.94H57.01a.812.812,0,0,1,.35.07A.946.946,0,0,1,57.98,11.9Z" fill="#4b5a7a"/>
      <path id="Path_423" data-name="Path 423" d="M59.95,5.21H4.05A4.059,4.059,0,0,0,0,9.26V54.74a4.052,4.052,0,0,0,4.05,4.05H59.94a4.052,4.052,0,0,0,4.05-4.05V9.26A4.044,4.044,0,0,0,59.95,5.21Zm2.11,49.53a2.117,2.117,0,0,1-2.11,2.11H4.05a2.117,2.117,0,0,1-2.11-2.11V18.59H62.06V54.74Zm0-38.09H1.94V9.26A2.117,2.117,0,0,1,4.05,7.15H59.94a2.117,2.117,0,0,1,2.11,2.11v7.39Z" fill="#4b5a7a"/>
      <path id="Path_424" data-name="Path 424" d="M59.95,7.15H4.05A2.117,2.117,0,0,0,1.94,9.26v7.39H62.06V9.26A2.117,2.117,0,0,0,59.95,7.15ZM8.96,14.85a2.945,2.945,0,1,1,2.95-2.95A2.953,2.953,0,0,1,8.96,14.85Zm7.4-.14a2.81,2.81,0,1,1,2.8-2.81A2.812,2.812,0,0,1,16.36,14.71Zm7.39,0a2.81,2.81,0,1,1,2.81-2.81A2.812,2.812,0,0,1,23.75,14.71ZM57.36,12.8a.812.812,0,0,1-.35.07H31.33a.97.97,0,0,1,0-1.94H57.01a.812.812,0,0,1,.35.07.963.963,0,0,1,0,1.8Z" fill="#f1f1f1"/>
      <path id="Path_425" data-name="Path 425" d="M9.97,11.9a1.005,1.005,0,1,1-2.01,0,1.005,1.005,0,0,1,2.01,0Zm7.25,0a.865.865,0,1,1-.86-.87A.869.869,0,0,1,17.22,11.9Zm7.4,0a.87.87,0,1,1-.87-.87A.871.871,0,0,1,24.62,11.9Z" fill="#f1f1f1"/>
      <path id="Path_426" data-name="Path 426" d="M1.94,18.59V54.74a2.117,2.117,0,0,0,2.11,2.11H59.94a2.117,2.117,0,0,0,2.11-2.11V18.59ZM37.57,39.87a.968.968,0,0,1-1.37-.05l-3.23-3.47v9.92a.97.97,0,1,1-1.94,0V36.36L27.8,39.82a.969.969,0,0,1-1.42-1.32l4.91-5.28a.01.01,0,0,0,.01-.01.964.964,0,0,1,.7-.3,1.006,1.006,0,0,1,.39.08c.01.01.02.01.02.02a.881.881,0,0,1,.29.2.01.01,0,0,1,.01.01l4.91,5.28A.984.984,0,0,1,37.57,39.87Zm1.51-9.73H24.92a.97.97,0,0,1,0-1.94H39.08a.97.97,0,1,1,0,1.94Z" fill="#f1f1f1"/>
      <path id="Path_427" data-name="Path 427" d="M62.06,9.26v7.39H59.05V7.15h.89A2.119,2.119,0,0,1,62.06,9.26Z" fill="#e1e1e1"/>
      <path id="Path_428" data-name="Path 428" d="M62.06,18.59V54.74a2.117,2.117,0,0,1-2.11,2.11H4.05a2.117,2.117,0,0,1-2.11-2.11v-.89h55a2.117,2.117,0,0,0,2.11-2.11V18.59Z" fill="#e1e1e1"/>
      <path id="Path_429" data-name="Path 429" d="M37.57,39.87a.968.968,0,0,1-1.37-.05l-3.23-3.47v9.92a.97.97,0,1,1-1.94,0V36.36L27.8,39.82a.969.969,0,0,1-1.42-1.32l4.91-5.28a.01.01,0,0,0,.01-.01.964.964,0,0,1,.7-.3,1.006,1.006,0,0,1,.39.08c.01.01.02.01.02.02a.881.881,0,0,1,.29.2.01.01,0,0,1,.01.01l4.91,5.28A.984.984,0,0,1,37.57,39.87Zm2.48-10.7a.977.977,0,0,1-.97.97H24.92a.97.97,0,0,1,0-1.94H39.08A.977.977,0,0,1,40.05,29.17Z" fill="#4b5a7a"/>
    </g>
  </g>
</svg>